<svg width="25" height="24" viewBox="0 0 25 24" fill="none" xmlns="http://www.w3.org/2000/svg">
<path opacity="0.15" d="M12.2541 24C5.5785 24 0.163208 18.7026 0.163208 12.1724L0.163208 3.29825C0.163208 1.65891 1.52048 0.344727 3.18246 0.344727L12.2541 0.344727C18.9297 0.344727 24.345 5.6421 24.345 12.1724C24.345 18.7026 18.9297 24 12.2541 24Z" fill="#8A624A"/>
<path d="M12.2484 3.80664L5.96106 3.80664C4.82414 3.80664 3.8653 4.73886 3.8653 5.90413L3.8653 12.1692C3.8653 16.8029 7.61853 20.5317 12.2347 20.5317C14.5359 20.5317 16.6317 19.5995 18.1248 18.0778C19.6315 16.5698 20.5904 14.4723 20.5904 12.1555C20.6041 7.54922 16.8509 3.80664 12.2484 3.80664ZM12.2484 17.9818C12.2484 14.4723 9.94716 12.1692 6.45421 12.1692C9.93346 12.1692 12.2484 9.86606 12.2484 6.37024C12.2484 9.85235 14.5496 12.1692 18.0426 12.1692C14.5496 12.1692 12.2484 14.4723 12.2484 17.9818Z" fill="#8A624A"/>
</svg>
