<svg width="22" height="23" viewBox="0 0 22 23" fill="none" xmlns="http://www.w3.org/2000/svg">
<rect y="12.7222" width="9.77778" height="9.77778" fill="white"/>
<rect x="12.2222" y="0.5" width="9.77778" height="9.77778" fill="white"/>
<rect x="12.2222" y="12.7222" width="9.77778" height="9.77778" fill="white"/>
<path fill-rule="evenodd" clip-rule="evenodd" d="M1.22522 1.18037H4.90089C7.30121 1.18037 9.30641 2.96805 9.70555 5.31667L9.77777 5.38889L9.72517 5.44149C9.76052 5.68617 9.77849 5.93662 9.77776 6.19147C9.77776 7.58207 9.21721 8.84102 8.33633 9.74614C7.46345 10.6595 6.23824 11.219 4.8929 11.219C2.1942 11.219 0 8.9809 0 6.1997V2.43931C0 1.7399 0.560559 1.18037 1.22522 1.18037ZM1.75821 6.19289C1.6778 6.19741 1.59623 6.1997 1.51352 6.1997C1.59947 6.1997 1.68419 6.20215 1.76762 6.20699L1.75821 6.19289ZM4.85796 9.05555H4.88888L4.94806 9.02596C4.91689 9.23764 4.90089 9.45878 4.90089 9.68854C4.90089 9.46947 4.88634 9.25822 4.85796 9.05555Z" fill="white"/>
</svg>
