<svg width="31" height="30" viewBox="0 0 31 30" fill="none" xmlns="http://www.w3.org/2000/svg">
<path d="M24.779 17.1398C24.4002 17.1398 24.037 17.2903 23.7691 17.5583C23.5013 17.8263 23.3508 18.1897 23.3508 18.5687V19.1117L21.2371 16.9969C20.4908 16.2561 19.4821 15.8404 18.4308 15.8404C17.3794 15.8404 16.3707 16.2561 15.6244 16.9969L14.6247 17.9972L11.0828 14.4535C10.326 13.7327 9.32123 13.3307 8.27642 13.3307C7.23162 13.3307 6.22682 13.7327 5.47006 14.4535L3.35635 16.5682V8.56634C3.35635 8.18737 3.50682 7.82392 3.77466 7.55595C4.04249 7.28797 4.40576 7.13743 4.78453 7.13743H14.7818C15.1605 7.13743 15.5238 6.98688 15.7916 6.71891C16.0595 6.45094 16.2099 6.08749 16.2099 5.70852C16.2099 5.32955 16.0595 4.9661 15.7916 4.69813C15.5238 4.43015 15.1605 4.27961 14.7818 4.27961H4.78453C3.6482 4.27961 2.55842 4.73124 1.75491 5.53516C0.951405 6.33908 0.5 7.42943 0.5 8.56634V25.7133C0.5 26.8502 0.951405 27.9405 1.75491 28.7444C2.55842 29.5484 3.6482 30 4.78453 30H21.9227C23.059 30 24.1488 29.5484 24.9523 28.7444C25.7558 27.9405 26.2072 26.8502 26.2072 25.7133V18.5687C26.2072 18.1897 26.0567 17.8263 25.7889 17.5583C25.5211 17.2903 25.1578 17.1398 24.779 17.1398ZM4.78453 27.1422C4.40576 27.1422 4.04249 26.9916 3.77466 26.7237C3.50682 26.4557 3.35635 26.0922 3.35635 25.7133V20.6121L7.49807 16.4682C7.70788 16.2682 7.9866 16.1566 8.27642 16.1566C8.56625 16.1566 8.84496 16.2682 9.05478 16.4682L13.5821 20.9979L19.7233 27.1422H4.78453ZM23.3508 25.7133C23.3488 25.9868 23.2586 26.2524 23.0938 26.4706L16.6527 19.9976L17.6524 18.9974C17.7548 18.8928 17.877 18.8098 18.0119 18.7531C18.1468 18.6964 18.2916 18.6671 18.4379 18.6671C18.5842 18.6671 18.729 18.6964 18.8639 18.7531C18.9988 18.8098 19.121 18.8928 19.2234 18.9974L23.3508 23.1555V25.7133ZM30.0775 4.69399L25.793 0.407259C25.6572 0.27717 25.497 0.175196 25.3217 0.107188C24.974 -0.0357292 24.584 -0.0357292 24.2363 0.107188C24.061 0.175196 23.9008 0.27717 23.765 0.407259L19.4805 4.69399C19.3473 4.82722 19.2417 4.98539 19.1696 5.15946C19.0976 5.33353 19.0605 5.5201 19.0605 5.70852C19.0605 6.08904 19.2115 6.45397 19.4805 6.72304C19.7494 6.99211 20.1142 7.14327 20.4945 7.14327C20.8748 7.14327 21.2396 6.99211 21.5085 6.72304L23.3508 4.86546V12.8531C23.3508 13.232 23.5013 13.5955 23.7691 13.8635C24.037 14.1314 24.4002 14.282 24.779 14.282C25.1578 14.282 25.5211 14.1314 25.7889 13.8635C26.0567 13.5955 26.2072 13.232 26.2072 12.8531V4.86546L28.0495 6.72304C28.1823 6.85697 28.3403 6.96328 28.5143 7.03582C28.6883 7.10836 28.875 7.14571 29.0635 7.14571C29.2521 7.14571 29.4387 7.10836 29.6128 7.03582C29.7868 6.96328 29.9448 6.85697 30.0775 6.72304C30.2114 6.59021 30.3177 6.43217 30.3902 6.25804C30.4627 6.08392 30.5 5.89715 30.5 5.70852C30.5 5.51988 30.4627 5.33312 30.3902 5.15899C30.3177 4.98487 30.2114 4.82683 30.0775 4.69399Z" fill="#8D8D8D"/>
</svg>
