<svg width="204" height="44" viewBox="0 0 204 44" fill="none" xmlns="http://www.w3.org/2000/svg">
<path opacity="0.15" d="M111.553 14.5539C109.803 14.5539 108.383 13.1564 108.383 11.4337V9.09263C108.383 8.66016 108.739 8.31348 109.175 8.31348H111.553C113.304 8.31348 114.723 9.71095 114.723 11.4337C114.723 13.1564 113.304 14.5539 111.553 14.5539Z" fill="#444444"/>
<path d="M0 42.31C3.21732 40.8697 4.2704 37.6458 5.20364 35.0582L15.5564 6.96575L17.4302 2.01562L29.6531 35.0582C30.59 37.5922 31.585 40.8161 34.8567 42.31H26.1417C28.3059 40.8125 26.9006 37.5886 25.9674 35.0582L24.0972 29.9365H7.60392L5.73381 35.0582C4.79693 37.6494 3.39526 40.8732 5.5595 42.31H0ZM23.9193 29.4147L15.8506 7.71274L7.83632 29.4147H23.9193Z" fill="#444444"/>
<path d="M41.8252 15.3685V20.0327C43.8151 16.7516 46.7964 14.7358 49.6615 14.7358C51.4735 14.7358 53.3472 15.54 54.8651 17.3842L52.1743 19.4572C50.947 17.4986 49.3092 16.5801 47.6134 16.5801C45.5654 16.5801 43.4629 17.9025 41.8252 20.4937V38.3964C41.8252 40.0655 42.4679 41.5058 43.9313 42.31H36.3274C37.7908 41.5058 38.3754 40.0655 38.4335 38.3964V20.894C38.3754 19.2821 37.7908 17.9597 36.3274 17.3842L41.8252 15.3685Z" fill="#444444"/>
<path d="M68.5515 14.736C72.4697 14.736 75.5127 16.0584 77.735 18.1314V22.91C76.3297 18.4781 73.2903 15.1399 68.5515 15.0827C55.3917 15.1399 54.9814 42.0815 68.4353 42.3674C77.3828 42.3674 80.8906 32.871 83.4652 26.0194V5.52556C83.4652 3.85645 82.8806 2.59122 81.4172 2.01579L86.8568 0V19.5718C89.0792 16.6374 93.0554 14.736 96.625 14.736C98.2046 14.736 99.7842 15.1399 101.012 16.0012C105.573 19.5718 103.993 25.4976 99.3158 27.6278C94.3446 29.8723 87.3834 29.9867 86.8605 37.2421V38.393C86.9186 40.0621 87.5613 41.5025 88.9666 42.3066H81.4208C82.8261 41.5025 83.4688 40.0621 83.4688 38.393V30.9696C83.4688 28.3784 85.5169 24.0608 86.8605 21.5876V34.1362C89.3769 29.3577 94.6968 29.472 98.0303 27.4598C99.7261 26.4233 100.663 24.8686 100.605 22.7956C100.489 18.0742 97.3876 16.2336 94.3482 16.2336C93.6474 16.2336 92.9429 16.3479 92.3001 16.5231C81.0722 19.8041 84.0535 42.7713 68.4389 43.0036C50.7146 42.8284 50.7146 14.736 68.5515 14.736ZM100.601 38.393V27.7422C101.829 26.938 103.935 24.9222 103.993 22.7349V38.393C104.051 40.0621 104.694 41.5025 106.099 42.3066H98.5532C99.9585 41.5025 100.601 40.0657 100.601 38.393Z" fill="#444444"/>
<path d="M109.138 42.3102C110.602 41.506 111.186 40.0657 111.245 38.3966V20.8942C111.186 19.2823 110.602 17.9599 109.138 17.3844L114.636 15.3687V38.393C114.636 40.0621 115.279 41.5025 116.742 42.3066H109.138V42.3102Z" fill="#444444"/>
<path d="M125.683 0V38.393C125.683 40.0621 126.325 41.5025 127.789 42.3066H120.185C121.648 41.5025 122.233 40.0621 122.291 38.393V5.52556C122.233 3.85645 121.648 2.59122 120.185 2.01579L125.683 0Z" fill="#444444"/>
<path d="M130.483 17.3844L135.981 15.3687V33.8467C135.865 39.2008 138.556 41.5025 141.769 41.5025C144.518 41.5025 147.677 39.8334 149.722 36.9562V20.8942C149.664 19.2823 149.079 17.9599 147.616 17.3844L153.117 15.3687V36.7811C153.175 38.4502 153.702 39.7154 155.223 40.2909L149.725 42.3066V37.4709C147.619 40.8091 143.469 42.9964 139.725 42.9964C135.923 42.9964 132.589 40.6375 132.589 34.7653V20.8942C132.531 19.2823 131.943 17.9599 130.483 17.3844Z" fill="#444444"/>
<path d="M156.973 15.3687H164.577C163.524 16.2336 163.64 17.6704 164.461 19.2823L168.379 27.0524L170.954 22.6777C172.475 20.0865 174.52 16.8626 172.708 15.3687H178.264C174.698 16.8662 172.998 20.09 171.48 22.6777L168.673 27.5134L174.171 38.393C175.05 40.0621 176.394 41.5025 178.264 42.3066H170.718C171.713 41.5025 171.597 40.0621 170.776 38.393L166.858 30.6229L164.283 35.0548C162.762 37.646 160.717 40.8699 162.529 42.3066H156.973C160.481 40.8663 162.177 37.6424 163.699 35.0548L166.564 30.1619L161.066 19.2823C160.191 17.6704 158.847 16.2336 156.973 15.3687Z" fill="#444444"/>
<path d="M178.496 28.6069C178.612 21.641 182.124 14.7358 190.955 14.7358C199.67 14.7358 202.826 21.1835 203.004 28.0315H181.891V28.5497C181.833 35.5157 185.167 42.596 191.95 42.596C196.104 42.596 198.911 39.9475 200.487 36.2626L202.299 38.1605C200.077 41.0376 196.627 42.9963 191.946 42.9963C182.883 42.9998 178.38 35.748 178.496 28.6069ZM181.946 27.5133H199.55C199.902 22.3916 197.212 15.1361 190.955 15.079C184.695 15.1397 182.236 21.1263 181.946 27.5133Z" fill="#444444"/>
<path d="M111.557 9.25342H109.89C109.589 9.25342 109.334 9.49646 109.334 9.80026V11.4336C109.334 12.6417 110.329 13.6138 111.553 13.6138C112.163 13.6138 112.719 13.3708 113.115 12.9741C113.514 12.5809 113.768 12.0341 113.768 11.43C113.772 10.2291 112.777 9.25342 111.557 9.25342ZM111.557 12.949C111.557 12.0341 110.947 11.4336 110.021 11.4336C110.943 11.4336 111.557 10.8332 111.557 9.92177C111.557 10.8296 112.167 11.4336 113.093 11.4336C112.167 11.4336 111.557 12.0341 111.557 12.949Z" fill="#444444"/>
</svg>
