<svg width="154" height="34" viewBox="0 0 154 34" fill="none" xmlns="http://www.w3.org/2000/svg">
<path opacity="0.15" d="M84.6266 11.68C83.2988 11.68 82.2217 10.6122 82.2217 9.29601V7.50736C82.2217 7.17694 82.4916 6.91206 82.8222 6.91206H84.6266C85.9544 6.91206 87.0315 7.97978 87.0315 9.29601C87.0315 10.6122 85.9544 11.68 84.6266 11.68Z" fill="white"/>
<path d="M0 32.8871C2.44073 31.7866 3.23961 29.3234 3.94759 27.3464L11.8014 5.88256L13.2229 2.10046L22.4955 27.3464C23.2062 29.2825 23.961 31.7456 26.443 32.8871H19.8316C21.4734 31.7429 20.4073 29.2797 19.6994 27.3464L18.2807 23.4332H5.76849L4.34978 27.3464C3.63905 29.3262 2.57571 31.7893 4.21755 32.8871H0ZM18.1457 23.0345L12.0246 6.45329L5.9448 23.0345H18.1457Z" fill="white"/>
<path d="M31.7296 12.3026V15.8662C33.2392 13.3594 35.5008 11.8192 37.6744 11.8192C39.049 11.8192 40.4704 12.4337 41.6219 13.8427L39.5807 15.4266C38.6495 13.9301 37.4071 13.2283 36.1207 13.2283C34.567 13.2283 32.972 14.2387 31.7296 16.2185V29.8969C31.7296 31.1721 32.2172 32.2726 33.3273 32.8871H27.5588C28.669 32.2726 29.1125 31.1721 29.1566 29.8969V16.5243C29.1125 15.2928 28.669 14.2824 27.5588 13.8427L31.7296 12.3026Z" fill="white"/>
<path d="M52.0045 11.8192C54.9769 11.8192 57.2854 12.8296 58.9713 14.4135V18.0645C57.9052 14.6783 55.5995 12.1278 52.0045 12.0841C42.0212 12.1278 41.7099 32.7123 51.9163 32.9308C58.7041 32.9308 61.3652 25.6751 63.3183 20.4403V4.78206C63.3183 3.50679 62.8748 2.54011 61.7646 2.10045L65.8913 0.560303V15.514C67.5772 13.272 70.5937 11.8192 73.3016 11.8192C74.5 11.8192 75.6983 12.1278 76.6294 12.7859C80.0894 15.514 78.8911 20.0416 75.3429 21.6691C71.5716 23.384 66.2907 23.4714 65.894 29.0148V29.8941C65.9381 31.1694 66.4257 32.2699 67.4918 32.8843H61.7674C62.8335 32.2699 63.3211 31.1694 63.3211 29.8941V24.2224C63.3211 22.2426 64.8748 18.9438 65.894 17.0541V26.6418C67.8031 22.9908 71.8388 23.0782 74.3677 21.5407C75.6542 20.7488 76.3649 19.5609 76.3209 17.9771C76.2327 14.3698 73.8801 12.9634 71.5744 12.9634C71.0427 12.9634 70.5083 13.0508 70.0207 13.1846C61.5029 15.6915 63.7646 33.2393 51.9191 33.4168C38.4731 33.283 38.4731 11.8192 52.0045 11.8192ZM76.3181 29.8941V21.7565C77.2492 21.1421 78.847 19.6019 78.8911 17.9307V29.8941C78.9351 31.1694 79.4227 32.2699 80.4888 32.8843H74.7644C75.8305 32.2699 76.3181 31.1721 76.3181 29.8941Z" fill="white"/>
<path d="M82.7947 32.8871C83.9049 32.2726 84.3484 31.1721 84.3925 29.8969V16.5243C84.3484 15.2928 83.9049 14.2824 82.7947 13.8427L86.9654 12.3026V29.8941C86.9654 31.1694 87.453 32.2699 88.5632 32.8843H82.7947V32.8871Z" fill="white"/>
<path d="M95.3454 0.560303V29.8941C95.3454 31.1694 95.833 32.2699 96.9432 32.8843H91.1747C92.2849 32.2699 92.7284 31.1694 92.7724 29.8941V4.78206C92.7284 3.50679 92.2849 2.54011 91.1747 2.10045L95.3454 0.560303Z" fill="white"/>
<path d="M98.9872 13.8427L103.158 12.3026V26.4206C103.07 30.5113 105.111 32.2699 107.549 32.2699C109.634 32.2699 112.031 30.9946 113.582 28.7964V16.5243C113.538 15.2928 113.094 14.2824 111.984 13.8427L116.158 12.3026V28.6626C116.202 29.9378 116.601 30.9045 117.755 31.3442L113.585 32.8843V29.1896C111.987 31.7401 108.838 33.4114 105.998 33.4114C103.114 33.4114 100.585 31.6091 100.585 27.1224V16.5243C100.541 15.2928 100.095 14.2824 98.9872 13.8427Z" fill="white"/>
<path d="M119.083 12.3026H124.852C124.053 12.9634 124.141 14.0612 124.764 15.2928L127.736 21.2294L129.689 17.887C130.843 15.9072 132.394 13.444 131.02 12.3026H135.234C132.529 13.4468 131.24 15.9099 130.089 17.887L127.959 21.5817L132.13 29.8941C132.797 31.1694 133.816 32.2699 135.234 32.8843H129.51C130.265 32.2699 130.177 31.1694 129.554 29.8941L126.582 23.9575L124.629 27.3436C123.474 29.3234 121.923 31.7866 123.298 32.8843H119.083C121.744 31.7838 123.031 29.3207 124.185 27.3436L126.359 23.6052L122.188 15.2928C121.524 14.0612 120.505 12.9634 119.083 12.3026Z" fill="white"/>
<path d="M135.411 22.4173C135.499 17.0951 138.163 11.8192 144.862 11.8192C151.474 11.8192 153.868 16.7455 154.003 21.9777H137.987V22.3736C137.942 27.6959 140.471 33.1055 145.617 33.1055C148.769 33.1055 150.898 31.082 152.094 28.2666L153.468 29.7167C151.782 31.9149 149.165 33.4114 145.615 33.4114C138.739 33.4141 135.323 27.8734 135.411 22.4173ZM138.028 21.5817H151.383C151.65 17.6685 149.609 12.1251 144.862 12.0814C140.113 12.1278 138.248 16.7018 138.028 21.5817Z" fill="white"/>
<path d="M84.6293 7.63024H83.3648C83.1362 7.63024 82.9434 7.81593 82.9434 8.04805V9.29601C82.9434 10.219 83.6982 10.9618 84.6265 10.9618C85.0893 10.9618 85.5108 10.7761 85.8111 10.473C86.1141 10.1726 86.3069 9.75477 86.3069 9.29328C86.3097 8.37574 85.5549 7.63024 84.6293 7.63024ZM84.6293 10.4538C84.6293 9.75477 84.1665 9.29601 83.464 9.29601C84.1637 9.29601 84.6293 8.83724 84.6293 8.14089C84.6293 8.83451 85.0921 9.29601 85.7945 9.29601C85.0921 9.29601 84.6293 9.75477 84.6293 10.4538Z" fill="white"/>
</svg>
