<svg width="49" height="47" viewBox="0 0 49 47" fill="none" xmlns="http://www.w3.org/2000/svg">
<path d="M48.9436 22.2027V37.4275C49.0908 38.7131 48.9489 40.0158 48.5285 41.238C48.1081 42.4603 47.4201 43.5706 46.5159 44.4857C45.6117 45.4009 44.5148 46.0973 43.3071 46.5228C42.0995 46.9483 40.8124 47.0919 39.5422 46.9429H9.45779C8.18757 47.0919 6.90051 46.9483 5.69288 46.5228C4.48525 46.0973 3.38831 45.4009 2.48412 44.4857C1.57993 43.5706 0.891894 42.4603 0.471486 41.238C0.0510782 40.0158 -0.0908216 38.7131 0.0564017 37.4275V12.0529C-0.0908216 10.7673 0.0510782 9.46461 0.471486 8.24232C0.891894 7.02004 1.57993 5.90979 2.48412 4.99463C3.38831 4.07947 4.48525 3.38309 5.69288 2.95758C6.90051 2.53207 8.18757 2.38845 9.45779 2.53745H27.007C27.5057 2.53745 27.984 2.73796 28.3366 3.09486C28.6892 3.45176 28.8873 3.93581 28.8873 4.44055C28.8873 4.94528 28.6892 5.42934 28.3366 5.78623C27.984 6.14313 27.5057 6.34364 27.007 6.34364H9.45779C5.50419 6.34364 3.81696 8.05134 3.81696 12.0529V35.5244L10.1848 29.0792C10.6582 28.6038 11.298 28.3371 11.9648 28.3371C12.6317 28.3371 13.2715 28.6038 13.7448 29.0792L16.1014 31.4644C16.3357 31.6969 16.6508 31.8271 16.9789 31.8271C17.307 31.8271 17.622 31.6969 17.8564 31.4644L30.2411 18.9294C30.7145 18.454 31.3543 18.1873 32.0211 18.1873C32.6879 18.1873 33.3278 18.454 33.8011 18.9294L45.183 30.4495V22.2027C45.183 21.698 45.3811 21.2139 45.7338 20.857C46.0864 20.5001 46.5646 20.2996 47.0633 20.2996C47.562 20.2996 48.0403 20.5001 48.3929 20.857C48.7455 21.2139 48.9436 21.698 48.9436 22.2027ZM14.4543 13.956C13.6219 13.9584 12.8245 14.295 12.2372 14.8919C11.6498 15.4889 11.3206 16.2974 11.3218 17.1399C11.3229 17.9823 11.6544 18.7899 12.2434 19.3852C12.8324 19.9805 13.6307 20.3148 14.4631 20.3148C15.2955 20.3148 16.0938 19.9805 16.6828 19.3852C17.2718 18.7899 17.6032 17.9823 17.6044 17.1399C17.6056 16.2974 17.2763 15.4889 16.689 14.8919C16.1016 14.295 15.3042 13.9584 14.4719 13.956H14.4543ZM37.0352 8.88109H40.169V12.0529C40.169 12.5576 40.3671 13.0417 40.7197 13.3986C41.0723 13.7555 41.5506 13.956 42.0493 13.956C42.5479 13.956 43.0262 13.7555 43.3788 13.3986C43.7314 13.0417 43.9295 12.5576 43.9295 12.0529V8.88109H47.0633C47.562 8.88109 48.0403 8.68059 48.3929 8.32369C48.7455 7.96679 48.9436 7.48273 48.9436 6.978C48.9436 6.47327 48.7455 5.98921 48.3929 5.63231C48.0403 5.27541 47.562 5.07491 47.0633 5.07491H43.9295V1.90309C43.9295 1.39836 43.7314 0.914301 43.3788 0.557402C43.0262 0.200503 42.5479 0 42.0493 0C41.5506 0 41.0723 0.200503 40.7197 0.557402C40.3671 0.914301 40.169 1.39836 40.169 1.90309V5.07491H37.0352C36.5365 5.07491 36.0582 5.27541 35.7056 5.63231C35.353 5.98921 35.1549 6.47327 35.1549 6.978C35.1549 7.48273 35.353 7.96679 35.7056 8.32369C36.0582 8.68059 36.5365 8.88109 37.0352 8.88109Z" fill="#8D8D8D"/>
</svg>
